<?xml version="1.0" encoding="UTF-8" standalone="no"?>
<svg
   width="536.94299"
   height="474.87799"
   viewBox="0 0 536.94299 474.87799"
   version="1.1"
   id="svg4"
   xmlns="http://www.w3.org/2000/svg"
   xmlns:svg="http://www.w3.org/2000/svg">
  <defs
     id="defs4" />
  <path
     d="m 411.451,10.75 c -0.408,5.913 -0.489,42.813 -0.18,82 0.316,40.042 0.182,71.25 -0.305,71.25 -0.478,0 -3.46,-0.675 -6.627,-1.5 -11.538,-3.005 -24.451,-1.178 -36.531,5.17 -8.027,4.218 -13.576,10.057 -17.808,18.738 -6.267,12.852 -4.484,24.375 5.104,32.996 7.642,6.87 14.054,8.868 26.896,8.38 9.079,-0.346 11.515,-0.834 18,-3.613 13.286,-5.692 21.859,-13.809 25.532,-24.171 2.732,-7.708 3.623,-34.05 2.903,-85.75 C 428.065,87.712 428.032,66 428.361,66 c 0.329,0 2.97,1.795 5.869,3.99 2.898,2.194 8.987,6.076 13.529,8.626 12.843,7.209 20.926,16.429 24.808,28.3 2.405,7.353 1.519,21.888 -1.953,32.033 -1.403,4.097 -2.357,7.642 -2.12,7.878 0.236,0.236 2.892,-2.093 5.902,-5.176 6.054,-6.202 11.677,-16.622 14.089,-26.111 2.426,-9.543 1.998,-23.248 -1.004,-32.192 C 483.073,70.216 477.158,62.792 460.964,50.06 448.497,40.259 430.316,21.866 421.107,9.7369996 417.04,4.3819996 413.371,-3.6522539e-7 412.953,-3.6522539e-7 412.535,-3.6522539e-7 411.859,4.8379996 411.451,10.75 M 335,50.985 c -21.398,4.642 -39.237,14.403 -51.333,28.09 -6.436,7.281 -14.667,20.722 -14.667,23.95 0,2.37 0.785,1.85 8.573,-5.68 15.921,-15.392 31.892,-24.052 54.427,-29.512 3.334,-0.808 11.408,-1.331 20.5,-1.329 16.207,0.005 25.063,1.675 37.093,6.995 3.111,1.375 5.841,2.501 6.068,2.501 0.226,0 0.283,-4.346 0.125,-9.657 L 395.5,56.686 390,54.765 C 373.213,48.9 351.493,47.407 335,50.985 m 53.5,190.22 c -5.698,1.574 -8.934,1.827 -17.4,1.364 l -10.401,-0.568 -9.599,8.78 c -20.119,18.402 -52.998,46.512 -77.367,66.144 L 267,322.349 v 6.826 c 0,3.874 0.432,6.825 0.998,6.825 1.145,0 19.361,-11.029 35.502,-21.496 28.314,-18.359 59.388,-42.188 81.071,-62.167 6.777,-6.245 12.597,-11.8 12.934,-12.346 0.803,-1.298 -0.594,-1.11 -9.005,1.214 M 536.31,450.5 c 0.005,3.3 0.192,4.529 0.415,2.732 0.222,-1.797 0.218,-4.497 -0.01,-6 -0.229,-1.503 -0.411,-0.032 -0.405,3.268"
     stroke="none"
     fill="#222432"
     fill-rule="evenodd"
     id="path1" />
  <path
     d="m 410.385,35 c 0,6.875 0.16,9.688 0.355,6.25 0.196,-3.437 0.196,-9.062 0,-12.5 -0.195,-3.437 -0.355,-0.625 -0.355,6.25 m 17.846,55.25 0.231,24.25 0.287,-23.857 c 0.271,-22.459 0.389,-23.778 2.019,-22.5 1.566,1.227 1.6,1.189 0.36,-0.393 -0.755,-0.962 -1.768,-1.75 -2.25,-1.75 -0.486,0 -0.775,10.83 -0.647,24.25 M 490.32,101 c 0,3.575 0.182,5.038 0.403,3.25 0.222,-1.788 0.222,-4.712 0,-6.5 -0.221,-1.788 -0.403,-0.325 -0.403,3.25 M 292.4,123.389 c -1.706,0.764 -3.393,2.15 -3.75,3.082 -1.192,3.104 -0.753,116.208 0.46,118.872 2.285,5.015 10.387,6.251 14.435,2.202 L 306,245.091 v -58.49 -58.489 l -2.25,-2.557 c -2.772,-3.15 -7.247,-4.004 -11.35,-2.166 M 411.417,145.5 c 0.001,10.45 0.149,14.589 0.329,9.198 0.18,-5.391 0.179,-13.941 -0.002,-19 -0.181,-5.059 -0.328,-0.648 -0.327,9.802 m -90.102,6.507 c -1.201,0.484 -2.664,1.776 -3.25,2.871 -0.688,1.286 -1.065,12.966 -1.065,32.985 0,27.508 0.186,31.18 1.655,32.649 3.626,3.627 8.87,3.915 12.595,0.692 1.484,-1.284 1.75,-3.325 1.75,-13.441 v -11.927 l 7.002,0.332 c 6.441,0.305 7.004,0.172 7.022,-1.668 0.011,-1.1 0.888,-3.913 1.949,-6.25 L 350.902,184 H 341.951 333 v -14.045 c 0,-13.58 -0.081,-14.127 -2.455,-16.5 -2.528,-2.529 -5.42,-2.983 -9.23,-1.448 m -59.951,2.163 c -3.976,1.925 -4.364,4.754 -4.364,31.821 0,25.423 0.041,25.945 2.25,28.487 1.342,1.545 3.744,2.827 5.954,3.179 3.208,0.511 4.116,0.176 6.795,-2.502 l 3.092,-3.092 -0.296,-27.621 -0.295,-27.621 -2.361,-1.911 c -2.552,-2.065 -7.357,-2.395 -10.775,-0.74 m 166.979,23.33 c 0.003,4.4 0.179,6.076 0.39,3.724 0.212,-2.352 0.209,-5.952 -0.006,-8 -0.215,-2.048 -0.388,-0.124 -0.384,4.276 m -51.575,51.225 c 1.797,0.222 4.497,0.218 6,-0.01 1.503,-0.229 0.032,-0.411 -3.268,-0.405 -3.3,0.005 -4.529,0.192 -2.732,0.415 m -142.845,68.864 c 3.295,2.772 3.83,4.777 1.827,6.843 -4.061,4.188 -6.632,7.568 -5.758,7.568 0.555,0 1.008,0.466 1.008,1.035 0,0.702 -0.644,0.691 -2,-0.035 -1.1,-0.589 -2,-0.845 -2,-0.57 0,1.114 38.131,24.57 39.942,24.57 0.307,0 0.558,-3.562 0.558,-7.917 0,-4.354 -0.225,-7.842 -0.5,-7.751 -0.481,0.159 -5.278,-3.416 -25.602,-19.082 -9.155,-7.056 -13.661,-9.866 -7.475,-4.661 M 287,435.5 V 474 h 6 6 v -27.187 -27.187 l 9.115,14.437 c 5.013,7.94 9.748,15.45 10.523,16.687 1.009,1.612 2.367,2.25 4.791,2.25 3.308,0 3.6,-0.363 13.227,-16.465 5.414,-9.055 10.1,-16.48 10.412,-16.5 0.313,-0.019 0.538,12.003 0.5,26.715 l -0.068,26.75 6.25,0.298 6.25,0.297 V 435.548 397 h -5.818 -5.818 l -12.462,20.877 -12.462,20.878 -9.97,-16.46 c -5.484,-9.053 -11.095,-18.442 -12.47,-20.863 -2.498,-4.4 -2.504,-4.403 -8.25,-4.418 L 287,397 v 38.5 m 150,0 V 474 h 23.5 23.5 v -5 -5 H 467 450 V 430.5 397 h -6.5 -6.5 v 38.5 m 69.5,-14.832 c -6.225,1.749 -12.5,4.646 -12.5,5.769 0,0.711 0.915,2.457 2.033,3.878 l 2.034,2.585 4.549,-1.95 c 5.35,-2.293 13.349,-2.537 17.239,-0.525 3.242,1.677 5.145,5.366 5.145,9.975 v 3.306 l -9.25,0.603 c -11.27,0.736 -15.719,1.953 -19.855,5.433 -8.652,7.28 -6.987,17.978 3.563,22.891 7.663,3.568 15.572,2.871 22.758,-2.005 l 3.453,-2.343 1.079,2.857 c 0.969,2.568 1.541,2.858 5.637,2.858 h 4.558 l -0.288,-20.25 c -0.347,-24.376 -1.031,-26.405 -10.522,-31.215 -3.413,-1.731 -15.896,-2.918 -19.633,-1.867 M 374,440.788 c 0,18.535 0.143,20.07 2.25,24.242 2.756,5.455 7.25,8.585 13.511,9.409 5.471,0.72 9.635,-0.309 15.751,-3.893 2.389,-1.4 4.566,-2.546 4.837,-2.546 0.27,0 0.789,1.35 1.151,3 0.623,2.838 0.925,3 5.579,3 H 422 V 447.5 421 h -6 -6 v 18.949 18.949 l -3.475,2.651 c -4.518,3.446 -10.031,4.717 -14.372,3.314 C 386.771,463.123 386,459.885 386,439.032 V 421 h -6 -6 v 19.788 m 133.523,11.777 c -1.638,0.854 -3.318,2.088 -3.735,2.744 -1.208,1.9 -0.907,7.147 0.523,9.101 1.935,2.647 9.513,3.241 13.773,1.081 5.933,-3.009 6.916,-4.379 6.916,-9.646 V 451 l -7.25,0.006 c -4.597,0.004 -8.339,0.574 -10.227,1.559"
     stroke="none"
     fill="#482684"
     fill-rule="evenodd"
     id="path3" />
  <path
     d="m 161.334,47.416 c -38.675,7.367 -67.876001,33.818 -76.483001,69.283 -2.498,10.29 -2.947,29.759 -0.929,40.257 9.036,47.014 48.352001,92.49 125.025001,144.613 7.913,5.379 14.033,9.207 13.599,8.506 -0.622,-1.008 -0.343,-1.037 1.333,-0.14 1.167,0.625 2.121,1.371 2.121,1.659 0,0.288 -0.562,0.206 -1.25,-0.182 -0.938,-0.529 -0.969,-0.4 -0.126,0.516 1.328,1.442 6.376,2.182 6.376,0.934 0,-0.474 -0.482,-0.862 -1.071,-0.862 -0.64,0 -0.539,-0.549 0.25,-1.361 5.215,-5.37 6.854,-7.902 6.556,-10.127 -0.342,-2.553 -1.277,-3.927 -2.818,-4.137 -0.505,-0.069 -1.367,-0.181 -1.917,-0.25 -0.55,-0.069 -0.888,-0.524 -0.75,-1.012 0.137,-0.487 -8.3,-7.759 -18.75,-16.159 C 172.283,246.627 147.774,223.38 131.104,201.75 129.829,200.096 130.938,200 151.378,200 H 173 v 3.345 c 0,4.456 2.587,6.655 7.829,6.655 7.251,0 8.171,-1.837 8.171,-16.309 0,-14.073 -0.594,-15.56 -6.535,-16.353 -3.089,-0.412 -4.572,-0.05 -6.715,1.639 -2.404,1.896 -2.75,2.86 -2.75,7.671 v 5.502 l -19.75,-0.336 c -16.292,-0.278 -20.773,-0.678 -25.593,-2.287 -5.464,-1.824 -6.021,-2.309 -8.61,-7.489 C 112.815,169.569 109,154.127 109,141.37 c 0,-27.573 16.333,-53.291 41.5,-65.348 12.97,-6.213 19.629,-7.533 37.5,-7.434 13.795,0.077 16.49,0.383 24.5,2.783 18.924,5.671 34.823,15.152 47.842,28.529 l 7.658,7.87 v -4.489 C 268,93.986 255.47,76.588 240.732,65.42 232.442,59.138 216.498,51.585 206,48.967 195.029,46.231 171.792,45.424 161.334,47.416 M 228,125 c -1.955,1.955 -2,3.333 -2,61.545 v 59.546 l 2.455,2.454 c 3.169,3.17 9.597,3.403 12.545,0.455 1.1,-1.1 2.058,-2.562 2.13,-3.25 0.071,-0.687 0.036,-27.8 -0.079,-60.25 -0.237,-66.851 0.335,-62.5 -8.206,-62.5 -3.512,0 -5.395,0.55 -6.845,2 m -28.365,29.073 -2.635,2.072 v 31.817 c 0,36.497 -0.067,36.188 7.908,36.397 3.531,0.092 4.714,-0.381 6.691,-2.679 L 214,218.888 v -31.444 c 0,-30.111 -0.085,-31.529 -2,-33.444 -2.701,-2.701 -8.886,-2.664 -12.365,0.073 M -1.3906854e-6,435.5 V 474 H 6.4999986 12.999999 v -17 -17 h 17.918 c 9.855,0 18.63,-0.273 19.5,-0.607 1.406,-0.539 1.582,1.356 1.582,17 V 474 h 6.5 6.5 V 435.5 397 h -6.5 -6.5 v 16.5 16.5 h -19.5 -19.5 V 413.5 397 H 6.4999986 -1.3906854e-6 v 38.5 M 250,404.893 c -2.275,0.632 -2.573,1.363 -3.314,8.131 -0.448,4.09 -1.348,7.777 -2,8.191 -0.652,0.415 -2.648,0.761 -4.436,0.77 -3.122,0.014 -3.25,0.172 -3.25,4.015 0,3.974 0.025,4 3.85,4 h 3.851 l 0.649,9.154 c 0.358,5.034 0.65,12.729 0.65,17.098 0,10.429 1.795,14.327 7.825,16.995 5.157,2.281 12.336,2.066 18.458,-0.554 l 3.784,-1.619 -2.284,-3.563 c -1.719,-2.682 -2.777,-3.427 -4.283,-3.013 -5.441,1.496 -7.138,1.524 -9,0.147 -1.836,-1.358 -2.026,-2.843 -2.317,-18.062 L 257.865,430 h 8.068 8.067 v -4.5 -4.5 h -8 -8 v -8.5 -8.5 l -2.75,0.1 c -1.512,0.055 -3.875,0.412 -5.25,0.793 M 94.702999,421.381 c -10.73,4 -16.539,11.711 -17.459,23.172 -0.987,12.287 4.049,21.963 14.166,27.221 7.005,3.64 19.490001,3.787 27.309001,0.32 7.275,-3.225 7.886,-4.222 4.817,-7.869 l -2.523,-2.998 -6.181,2.497 c -12.842,5.187 -24.097001,-0.097 -25.049001,-11.76 L 89.499999,448.5 108.25,448.228 127,447.956 v -4.829 c 0,-13.454 -8.197,-22.011 -21.825,-22.783 -4.196,-0.238 -8.085001,0.147 -10.472001,1.037 M 152.5,420.731 c -5.318,1.326 -12.499,4.54 -12.495,5.591 0.003,0.648 1.015,2.423 2.25,3.944 l 2.245,2.767 5.261,-2.017 c 12.515,-4.797 21.239,-0.93 21.239,9.415 v 3.302 l -9.921,0.477 c -15.464,0.745 -23.632,5.589 -24.751,14.678 -0.67,5.441 2.339,10.051 8.787,13.458 4.636,2.451 6.182,2.777 11.115,2.347 3.553,-0.31 7.506,-1.492 10.402,-3.111 2.57,-1.436 4.768,-2.492 4.885,-2.347 0.116,0.146 0.739,1.278 1.383,2.515 0.948,1.823 2.019,2.25 5.635,2.25 H 183 v -19.288 c 0,-18.016 -0.148,-19.582 -2.25,-23.742 -2.441,-4.831 -6.932,-8.371 -12.632,-9.954 -3.7,-1.028 -12.032,-1.18 -15.618,-0.285 m 64.373,1.274 c -1.995,1.054 -4.524,3.333 -5.62,5.065 l -1.993,3.148 -0.691,-4.609 L 207.877,421 H 202.939 198 v 26.5 26.5 h 6 6 l 0.004,-16.75 c 0.003,-14.849 0.225,-17.113 1.956,-19.951 2.754,-4.518 7.167,-6.538 13.402,-6.133 l 5.138,0.334 0.932,-4.828 c 0.744,-3.852 0.643,-5.012 -0.5,-5.735 -2.433,-1.54 -10.247,-0.946 -14.059,1.068 m -119.373001,7.558 c -4.053,2.095 -5.138,3.292 -6.967,7.687 l -1.56,3.75 H 102.487 c 12.955,0 13.513,-0.085 13.513,-2.05 0,-8.191 -10.503,-13.521 -18.500001,-9.387 M 154.032,452.582 c -1.907,0.828 -3.813,2.048 -4.234,2.711 -0.976,1.535 -0.997,6.863 -0.033,8.307 2.785,4.17 11.028,4.095 17.485,-0.158 3.502,-2.307 3.75,-2.801 3.75,-7.456 V 451 l -6.75,0.039 c -3.717,0.022 -8.308,0.715 -10.218,1.543"
     stroke="none"
     fill="#eb1d41"
     fill-rule="evenodd"
     id="path4" />
</svg>
