<?xml version="1.0" encoding="UTF-8" standalone="no"?>
<svg
   width="558.62915"
   height="458.49182"
   viewBox="0 0 558.62915 458.49182"
   version="1.1"
   id="svg4"
   xmlns="http://www.w3.org/2000/svg"
   xmlns:svg="http://www.w3.org/2000/svg">
  <defs
     id="defs4" />
  <path
     d="m 175.28142,47.098999 c -16.991,2.198 -36.664,10.325 -49.919,20.623 -22.056,17.135 -33.989004,42.007001 -34.023004,70.918001 -0.041,35.275 16.322004,66.967 53.687004,103.975 10.412,10.313 35.22,31.79 33.812,29.273 -0.427,-0.764 0.521,0.023 2.106,1.748 3.367,3.664 11.35,9.579 9.882,7.323 -0.55,-0.845 0.125,-0.377 1.5,1.041 1.375,1.418 2.275,2.093 2,1.5 -0.275,-0.593 0.625,0.094 2,1.527 1.375,1.432 3.4,3.25 4.5,4.039 1.773,1.271 1.886,1.258 1,-0.113 -0.55,-0.851 0.062,-0.401 1.36,1 1.298,1.401 2.036,1.872 1.64,1.047 -0.396,-0.825 0.342,-0.354 1.64,1.047 1.298,1.401 1.91,1.885 1.36,1.076 -0.723,-1.064 -0.238,-0.976 1.75,0.317 2.599,1.692 4.055,3.485 1.595,1.965 -0.699,-0.433 -0.883,-0.276 -0.467,0.397 0.377,0.611 1.301,0.875 2.053,0.586 0.752,-0.288 1.707,0.026 2.122,0.698 0.515,0.834 0.339,0.965 -0.553,0.414 -0.848,-0.524 -1.067,-0.418 -0.622,0.302 0.377,0.611 1.365,0.85 2.195,0.532 0.83,-0.319 1.378,-0.187 1.218,0.293 -0.16,0.48 0.046,0.985 0.459,1.123 0.413,0.138 0.837,-0.087 0.944,-0.5 0.107,-0.413 0.969,-1.582 1.916,-2.599 0.948,-1.017 2.021,-3.037 2.386,-4.49 0.364,-1.452 1.121,-2.924 1.681,-3.271 0.619,-0.382 0.271,-1.369 -0.883,-2.51 -2.198,-2.173 -2.372,-5.032 -0.277,-4.556 1,0.227 0.856,-0.307 -0.482,-1.785 -1.05,-1.16 -2.523,-1.874 -3.274,-1.586 -0.751,0.288 -1.112,0.115 -0.803,-0.384 0.759,-1.228 -4.424,-5.208 -5.73,-4.401 -0.57,0.353 -0.747,0.172 -0.394,-0.4 0.354,-0.573 -0.112,-1.655 -1.037,-2.405 -1.39,-1.127 -1.54,-1.129 -0.868,-0.013 1.287,2.137 -2.561,-0.205 -4.94,-3.007 l -1.989,-2.343 2.049,1.5 c 1.127,0.825 0.902,0.444 -0.5,-0.846 -4.36,-4.013 -12.524,-10.834 -13.049,-10.902 -0.891,-0.116 -19.182,-17.324 -31.565,-29.697 -11.077,-11.068 -24.249,-26.247 -23.322,-26.878 0.213,-0.144 10.175,-0.086 22.137,0.13 l 21.75,0.392 v 3.344 c 0,3.968 2.891,6.457 7.5,6.457 1.68,0 4.055,-0.701 5.277,-1.557 2.109,-1.477 2.223,-2.243 2.223,-14.965 0,-15.112 -0.184,-15.478 -7.779,-15.478 -5.381,0 -7.221,2.273 -7.221,8.919 v 5.262 l -19.75,-0.417 c -25.564,-0.54 -30.396,-1.844 -34.452,-9.298 -1.486,-2.731 -4.185,-9.241 -5.997,-14.466 -3.201,-9.228 -3.295,-9.959 -3.268,-25.5 0.024,-14.718 0.24,-16.609 2.688,-23.596 6.559,-18.720001 21.151,-35.123001 39.279,-44.157001 15.587,-7.766 38.113,-9.6 57.859,-4.708 17.832,4.417 37.613,16.059 51.607,30.371 5.771,5.902001 7.604,6.878001 6.745,3.591001 -0.288,-1.099 -0.125,-2.245 0.362,-2.546 0.488,-0.301 0.355,-1.398001 -0.294,-2.437001 -0.648,-1.039 -1.616,-1.619 -2.149,-1.289 -0.552,0.341 -0.706,-0.089 -0.357,-0.998 0.836,-2.178 -5.507,-11.77 -13.273,-20.072 -19.957,-21.334 -53.588,-32.628 -85.045,-28.56 m 183.795,1.624 c 1.788,0.222 4.712,0.222 6.5,0 1.788,-0.221 0.325,-0.403 -3.25,-0.403 -3.575,0 -5.038,0.182 -3.25,0.403 m 44.61,17.277 c 0,5.225 0.169,7.363 0.375,4.75 0.206,-2.613 0.206,-6.887 0,-9.5 -0.206,-2.613 -0.375,-0.475 -0.375,4.75 m -47.11,-0.272 c 2.063,0.216 5.438,0.216 7.5,0 2.063,-0.215 0.375,-0.392 -3.75,-0.392 -4.125,0 -5.812,0.177 -3.75,0.392 M 418.74342,144.5 c 10e-4,10.45 0.149,14.589 0.329,9.198 0.18,-5.391 0.179,-13.941 -0.002,-19 -0.181,-5.059 -0.328,-0.648 -0.327,9.802 m -123.107,-6 c 0.005,3.3 0.192,4.529 0.415,2.732 0.222,-1.797 0.218,-4.497 -0.01,-6 -0.229,-1.503 -0.411,-0.032 -0.405,3.268 m -87.734,14.833 -2.576,2.576 v 31.371 31.371 l 2.314,2.175 c 4.659,4.376 12.677,2.042 14.229,-4.143 0.327,-1.302 0.451,-15.699 0.276,-31.991 -0.357,-33.194 -0.175,-32.394 -7.605,-33.39 -3.438,-0.461 -4.458,-0.149 -6.638,2.031 m 59.879,2.122 -2.455,2.454 v 26.411 c 0,24.505 0.138,26.586 1.915,28.845 1.634,2.077 2.685,2.41 7.166,2.268 3.793,-0.121 5.622,-0.673 6.585,-1.991 1.035,-1.415 1.334,-7.948 1.334,-29.133 0,-25.976 -0.098,-27.407 -2,-29.309 -2.948,-2.948 -9.376,-2.715 -12.545,0.455 m 56.986,33.545 c 0,15.675 0.138,22.087 0.307,14.25 0.169,-7.838 0.169,-20.663 0,-28.5 -0.169,-7.838 -0.307,-1.425 -0.307,14.25 m -29.046,-7.5 c 10e-4,7.7 0.158,10.718 0.348,6.706 0.191,-4.011 0.189,-10.311 -0.002,-14 -0.192,-3.688 -0.348,-0.406 -0.346,7.294 m 45.26,1.75 c 0.254,0.413 4.235,0.75 8.845,0.75 4.61,0 8.591,-0.337 8.845,-0.75 0.255,-0.413 -3.725,-0.75 -8.845,-0.75 -5.12,0 -9.1,0.337 -8.845,0.75 m 3.095,11.473 c 1.788,0.222 4.712,0.222 6.5,0 1.788,-0.221 0.325,-0.403 -3.25,-0.403 -3.575,0 -5.038,0.182 -3.25,0.403 M 295.75142,220 c 0,11.825 0.144,16.663 0.321,10.75 0.177,-5.913 0.177,-15.587 0,-21.5 -0.177,-5.913 -0.321,-1.075 -0.321,10.75 m -64.987,67.777 c 0.139,0.948 0.435,1.5 0.657,1.227 0.223,-0.273 1.867,0.545 3.655,1.818 4.492,3.198 4.08,2.18 -0.658,-1.627 -2.984,-2.399 -3.847,-2.734 -3.654,-1.418"
     stroke="none"
     fill="#4dc2e6"
     fill-rule="evenodd"
     id="path1" />
  <path
     d="m 419.59542,2.7499993 c -0.423,1.512 -0.718,38.3499997 -0.656,81.8609997 l 0.114,79.111001 -4.614,-1.438 c -6.196,-1.932 -20.337,-1.947 -26.686,-0.029 -11.461,3.462 -20.458,9.295 -26.017,16.867 l -3.58,4.878 h -8.915 -8.915 v -14.429 c 0,-11.777 -0.288,-14.717 -1.57,-15.998 -3.191,-3.191 -8.699,-3.161 -11.924,0.064 -2.213,2.213 -2.251,61.854 -0.042,65.008 2.642,3.772 10.24,3.745 12.771,-0.045 0.404,-0.605 0.741,-6.388 0.75,-12.85 l 0.015,-11.75 h 6.863 6.863 l 0.504,6.279 c 1.934,24.092 29.441,33.932 57.535,20.582 7.682,-3.651 16.089,-11.666 19.691,-18.774 4.096,-8.084 4.609,-17.588 4.312,-79.91 -0.147,-30.898001 0.068,-56.177001 0.48,-56.177001 0.411,0 2.886,1.526 5.5,3.391 2.613,1.865 8.786,5.765 13.718,8.666 14.81,8.714 23.079,19.49 25.62,33.387001 1.269,6.936 -0.029,18.171 -3.144,27.224 -1.071,3.113 -1.711,5.896 -1.423,6.185 1.284,1.283 10.902,-10.842 14.496,-18.275 9.479,-19.604 8.455,-39.710001 -2.918,-57.306001 -3.845,-5.95 -5.46,-7.48 -23.097,-21.882 -13.126,-10.719 -27.241,-25.163 -36.377,-37.228 -4.233,-5.5889997 -7.896,-10.16199967757818 -8.14,-10.16199967757818 -0.245,0 -0.791,1.23799997757818 -1.214,2.74999997757818 m -70.269,46.9589997 c -22.687,3.965 -43.041,14.171 -56.307,28.234 -6.841,7.251 -15.104,19.709 -16.288,24.557001 -0.655,2.683 0.197,2.122 8.051,-5.300001 21.619,-20.43 44.258,-30.656 70.544,-31.863 15.315,-0.703 27.667,1.198 39.725,6.114 l 8.275,3.374 v -9.267 -9.267 l -7.52,-2.232 c -11.761,-3.491 -22.079,-4.998 -33.48,-4.888 -5.775,0.056 -11.625,0.298 -13,0.538 M 298.89942,124.57 c -0.864,0.863 -1.811,2.551 -2.106,3.75 -0.295,1.199 -0.408,27.702 -0.252,58.895 0.323,64.368 -0.246,60.285 8.409,60.285 3.578,0 4.962,-0.505 6.464,-2.361 1.833,-2.262 1.912,-4.728 1.912,-59.316 0,-56.928 -0.163,-59.896 -3.4,-62.058 -2.03,-1.355 -9.405,-0.817 -11.027,0.805 m 46.427,67.148 c 0,1.784 3.659,1.613 4.356,-0.204 0.42,-1.093 -0.08,-1.432 -1.893,-1.282 -1.355,0.112 -2.463,0.781 -2.463,1.486 m 49,48.42 c -7.747,1.698 -17.05,1.828 -23,0.321 -0.832,-0.21 -5.729,3.415 -11,8.145 -33.104,29.706 -45.69,40.46 -71.979,61.5 l -12.989,10.396 -0.016,6.75 c -0.009,3.712 0.16,6.75 0.376,6.75 1.151,0 19.001,-10.576 32.108,-19.024 33.081,-21.321 62.853,-44.004 85,-64.76 9.461,-8.867 12.612,-12.39 10.8,-12.078 -0.44,0.076 -4.625,0.976 -9.3,2"
     stroke="none"
     fill="#03a568"
     fill-rule="evenodd"
     id="path2" />
  <path
     d="m 418.64642,17.999999 c 0,3.575 0.182,5.038 0.403,3.25 0.222,-1.788 0.222,-4.712 0,-6.5 -0.221,-1.787 -0.403,-0.325 -0.403,3.25 m 28.18,13 c 3.82,3.85 7.171,7 7.446,7 0.275,0 -2.626,-3.15 -6.446,-7 -3.82,-3.85 -7.171,-7 -7.446,-7 -0.275,0 2.626,3.15 6.446,7 M 435.64642,105 c 0,3.575 0.182,5.038 0.403,3.25 0.222,-1.788 0.222,-4.712 0,-6.5 -0.221,-1.788001 -0.403,-0.325 -0.403,3.25 m -195.57,17.689 c -0.962,0.252 -1.75,0.901 -1.75,1.443 0,0.542 -0.427,0.722 -0.95,0.399 -2.72,-1.681 -3.05,4.907 -3.05,60.838 0,33.379 0.393,58.536 0.938,59.968 1.108,2.915 6.614,5.064 10.485,4.093 5.725,-1.437 5.578,0.209 5.563,-62.403 -0.007,-31.64 -0.289,-58.558 -0.627,-59.817 -0.337,-1.26 -1.884,-2.947 -3.436,-3.75 -2.855,-1.476 -4.002,-1.599 -7.173,-0.771 m 100.639,46.811 c 0.001,7.15 0.161,9.944 0.353,6.208 0.193,-3.735 0.192,-9.585 -0.003,-13 -0.194,-3.414 -0.352,-0.358 -0.35,6.792 m 4.611,22.218 c 0,1.784 3.659,1.613 4.356,-0.204 0.42,-1.093 -0.08,-1.432 -1.893,-1.282 -1.355,0.112 -2.463,0.781 -2.463,1.486 m -4.622,13.282 c 0,6.325 0.163,8.913 0.361,5.75 0.198,-3.163 0.198,-8.337 0,-11.5 -0.198,-3.163 -0.361,-0.575 -0.361,5.75 m -119.838,75.031 c 0.511,0.808 0.936,2.176 0.945,3.04 0.008,0.865 0.836,2.393 1.839,3.396 1.078,1.078 1.417,2.075 0.829,2.438 -0.547,0.338 -1.293,1.804 -1.657,3.256 -0.861,3.429 -4.282,7.077 -5.806,6.191 -0.654,-0.381 -3.103,-1.987 -5.44,-3.57 -2.337,-1.583 -4.25,-2.648 -4.25,-2.367 0,1.247 12.152,8.609 13.171,7.979 0.648,-0.4 0.865,-0.261 0.504,0.323 -0.349,0.565 1.791,2.637 4.755,4.605 9.239,6.135 30.651,19.113 40.32,24.44 l 9.25,5.096 -0.062,-7.179 -0.063,-7.179 -20.894,-15.5 c -11.491,-8.525 -21.326,-15.5 -21.854,-15.5 -0.528,0 -1.335,-0.41 -1.794,-0.91 -0.484,-0.529 -0.309,-0.609 0.417,-0.191 2.943,1.693 0.814,-0.446 -4.944,-4.971 -3.407,-2.676 -5.777,-4.205 -5.266,-3.397"
     stroke="none"
     fill="#24b29e"
     fill-rule="evenodd"
     id="path3" />
  <text
     xml:space="preserve"
     style="font-style:normal;font-variant:normal;font-weight:normal;font-stretch:normal;font-size:108.175px;font-family:ObelixPro;-inkscape-font-specification:ObelixPro;writing-mode:lr-tb;direction:ltr;fill:#4dc2e6;fill-opacity:1;fill-rule:evenodd;stroke-width:2.36996"
     x="-18.698217"
     y="412.32983"
     id="text4"
     transform="scale(0.90669074,1.1029119)"><tspan
       id="tspan4"
       x="-18.698217"
       y="412.32983"
       style="font-style:normal;font-variant:normal;font-weight:normal;font-stretch:normal;font-family:Pacifico;-inkscape-font-specification:Pacifico;fill:#4dc2e6;fill-opacity:1;stroke-width:2.36996">Heart</tspan></text>
  <text
     xml:space="preserve"
     style="font-style:normal;font-variant:normal;font-weight:normal;font-stretch:normal;font-size:118.84px;font-family:ObelixPro;-inkscape-font-specification:ObelixPro;writing-mode:lr-tb;direction:ltr;fill:#03a568;fill-opacity:1;fill-rule:evenodd;stroke-width:2.60363"
     x="251.84227"
     y="473.85706"
     id="text5"
     transform="scale(1.043457,0.95835286)"><tspan
       id="tspan5"
       x="251.84227"
       y="473.85706"
       style="font-style:normal;font-variant:normal;font-weight:normal;font-stretch:normal;font-family:Pacifico;-inkscape-font-specification:Pacifico;fill:#03a568;fill-opacity:1;stroke-width:2.60363">Mula</tspan></text>
</svg>
