<svg xmlns="http://www.w3.org/2000/svg" viewBox="0 0 100 100">
  <defs>
    <linearGradient id="heartGradient" x1="0%" y1="0%" x2="100%" y2="100%">
      <stop offset="0%" style="stop-color:#FF6B6B"/>
      <stop offset="100%" style="stop-color:#FF8E53"/>
    </linearGradient>
  </defs>
  <path fill="url(#heartGradient)" d="M50 88.6l-5.4-4.9C22.2 63.6 8 50.8 8 35c0-12.9 10.1-23 23-23 7.3 0 14.3 3.4 19 8.7C54.7 15.4 61.7 12 69 12c12.9 0 23 10.1 23 23 0 15.8-14.2 28.6-36.6 48.7L50 88.6z"/>
  <g fill="#fff" transform="translate(25, 30) scale(0.5)">
    <rect x="10" y="30" width="6" height="25" rx="2"/>
    <rect x="22" y="20" width="6" height="35" rx="2"/>
    <rect x="34" y="25" width="6" height="30" rx="2"/>
    <rect x="46" y="15" width="6" height="40" rx="2"/>
    <rect x="58" y="22" width="6" height="33" rx="2"/>
    <rect x="70" y="28" width="6" height="27" rx="2"/>
    <rect x="82" y="32" width="6" height="23" rx="2"/>
  </g>
</svg>
